<svg width="25" height="25" viewBox="0 0 25 25" fill="none" xmlns="http://www.w3.org/2000/svg">
<path fill-rule="evenodd" clip-rule="evenodd" d="M21.3379 14.7181C21.4459 14.1681 21.4999 13.5881 21.4999 13.0081C21.4999 12.6161 21.4739 12.2341 21.4239 11.8611C21.3869 11.5871 21.1429 11.3881 20.8669 11.3881H13.0619C12.7519 11.3881 12.4999 11.6401 12.4999 11.9501V14.1561C12.4999 14.4661 12.7519 14.7181 13.0619 14.7181H17.3369C17.5129 14.7181 17.6419 14.8981 17.5759 15.0611C16.6409 17.3711 14.1859 18.8871 11.4439 18.3801C9.33793 17.9911 7.61193 16.3211 7.15993 14.2281C6.39293 10.6761 9.07693 7.53814 12.4999 7.53814C13.6219 7.53814 14.6619 7.87514 15.5289 8.45214C15.7609 8.60614 16.0639 8.59114 16.2599 8.39214L17.9619 6.65914C18.1939 6.42214 18.1799 6.02814 17.9159 5.82714C16.4749 4.73114 14.6929 4.06514 12.7549 4.01214C7.88293 3.87714 3.66393 7.83514 3.50493 12.7061C3.33793 17.8141 7.43193 22.0081 12.4999 22.0081C16.8829 22.0081 20.5369 18.8681 21.3379 14.7181Z" fill="#0E121B"/>
</svg>
